<svg xmlns="http://www.w3.org/2000/svg" version="1.1" xmlns:xlink="http://www.w3.org/1999/xlink" xmlns:svgjs="http://svgjs.com/svgjs" width="355" height="141.2"><rect width="180" height="141.2" x="115" fill-opacity="0.15" fill="#c0c0c0"/><g transform="matrix(1,0,0,1,55,108.19999999999999)"><line x1="0" y1="0" x2="300" y2="0" stroke-width="3" stroke="#000000"/><path d="M60,0 L60,-42.599999999999994 L50,-42.599999999999994" stroke-width="1" stroke="#0026ff" fill="none"/><rect width="90.01667022705078" height="22" fill-opacity="1" fill="#c0c0ff" x="-43.016666412353516" y="-57.599998474121094" rx="2" ry="2"/><text x="47" y="-65.6" font-family="Helvetica" font-size="15pt" text-anchor="end" fill="#0026ff"><tspan dy="26" x="47">Javascript</tspan></text><line x1="60" y1="-5" x2="60" y2="5" stroke-width="2" stroke="#000000"/><text font-family="Helvetica" font-size="15pt" text-anchor="end" transform="matrix(-1.8369701987210297e-16,-1,1,-1.8369701987210297e-16,60.000000000000014,60)" x="50" y="-23" fill="#000000"><tspan dy="26" x="50"> </tspan></text><circle r="4" cx="60" cy="0" fill="white" stroke="#0026ff"/><path d="M60,0 L60,-70.19999999999999 L50,-70.19999999999999" stroke-width="1" stroke="#c0c0ff" fill="none"/><rect width="91.13333129882812" height="22.41666603088379" fill-opacity="1" fill="black" x="-44.13333511352539" y="-85.19999694824219" rx="2" ry="2"/><text x="47" y="-93.19999999999999" font-family="Helvetica" font-size="15pt" text-anchor="end" fill="#c0c0ff"><tspan dy="26" x="47">Typescript</tspan></text><circle r="4" cx="60" cy="0" fill="white" stroke="#c0c0ff"/><path d="M128,0 L128,-42.599999999999994 L118,-42.599999999999994" stroke-width="1" stroke="#000000" fill="none"/><rect width="42.21666717529297" height="22" fill-opacity="1" fill="transparent" x="72.78333282470703" y="-57.599998474121094" rx="2" ry="2"/><text x="115" y="-65.6" font-family="Helvetica" font-size="15pt" text-anchor="end" fill="#000000"><tspan dy="26" x="115">SVG</tspan></text><line x1="128" y1="-5" x2="128" y2="5" stroke-width="2" stroke="#000000"/><text font-family="Helvetica" font-size="15pt" text-anchor="end" transform="matrix(-1.8369701987210297e-16,-1,1,-1.8369701987210297e-16,128.00000000000003,128)" x="118" y="-23" fill="#000000"><tspan dy="26" x="118"> </tspan></text><circle r="4" cx="128" cy="0" fill="white" stroke="#000000"/><path d="M240,0 L240,-42.599999999999994 L230,-42.599999999999994" stroke-width="1" stroke="#cd3f85" fill="none"/><rect width="74.83333587646484" height="22" fill-opacity="1" fill="#c0c0c0" x="152.1666717529297" y="-57.599998474121094" rx="2" ry="2"/><text x="227" y="-65.6" font-family="Helvetica" font-size="15pt" text-anchor="end" fill="#cd3f85"><tspan dy="26" x="227">Timeline</tspan></text><line x1="240" y1="-5" x2="240" y2="5" stroke-width="2" stroke="#000000"/><text font-family="Helvetica" font-size="15pt" text-anchor="end" transform="matrix(-1.8369701987210297e-16,-1,1,-1.8369701987210297e-16,240.00000000000006,240)" x="230" y="-23" fill="#000000"><tspan dy="26" x="230"> </tspan></text><circle r="4" cx="240" cy="0" fill="white" stroke="#cd3f85"/><line x1="60" y1="-5" x2="60" y2="5" stroke-width="2" stroke="#000000"/><text font-family="Helvetica" font-size="15pt" text-anchor="end" transform="matrix(-1.8369701987210297e-16,-1,1,-1.8369701987210297e-16,60.000000000000014,60)" x="50" y="-23" fill="#c0c0c0"><tspan dy="26" x="50"> </tspan></text><line x1="240" y1="-5" x2="240" y2="5" stroke-width="2" stroke="#000000"/><text font-family="Helvetica" font-size="15pt" text-anchor="end" transform="matrix(-1.8369701987210297e-16,-1,1,-1.8369701987210297e-16,240.00000000000006,240)" x="230" y="-23" fill="#c0c0c0"><tspan dy="26" x="230"> </tspan></text><line x1="60" y1="-5" x2="60" y2="5" stroke-width="2" stroke="#000000"/><text font-family="Helvetica" font-size="15pt" text-anchor="end" transform="matrix(-1.8369701987210297e-16,-1,1,-1.8369701987210297e-16,60.000000000000014,60)" x="50" y="-23" fill="#c0c0c0"><tspan dy="26" x="50"> </tspan></text><line x1="240" y1="-5" x2="240" y2="5" stroke-width="2" stroke="#000000"/><text font-family="Helvetica" font-size="15pt" text-anchor="end" transform="matrix(-1.8369701987210297e-16,-1,1,-1.8369701987210297e-16,240.00000000000006,240)" x="230" y="-23" fill="#c0c0c0"><tspan dy="26" x="230"> </tspan></text></g><line x1="115" y1="0" x2="115" y2="108.19999999999999" stroke-width="0.5" stroke="#c0c0c0"/><line x1="295" y1="0" x2="295" y2="108.19999999999999" stroke-width="0.5" stroke="#c0c0c0"/><line x1="115" y1="23" x2="295" y2="23" stroke-width="0.75" stroke="#c0c0c0"/><text font-family="Helvetica" font-size="15pt" text-anchor="middle" x="205" y="-2" fill="#c0c0c0"><tspan dy="26" x="205">For All Time</tspan></text></svg>